#!OML:ASF F:\VICON\USERDATA\INSTALL\rory3\rory3.ASF
:FULLY-SPECIFIED
:DEGREES
771
root 0.304565 18.2061 -4.48776 -1.23401 1.80334 -1.61223
lowerback 7.80057 1.79261 1.44804
upperback 0.197483 2.51434 -0.0503656
thorax -4.10329 1.21772 -1.14555
lowerneck -13.5328 -0.979837 -7.76047
upperneck 11.6952 -0.767041 6.72795
head 5.8072 -0.206161 3.34032
rclavicle -4.12602e-014 8.34896e-015
rhumerus -7.24081 1.66204 -44.1188
rradius 125.007
rwrist 12.7207
rhand -27.5892 14.0331
rfingers 7.12502
rthumb -0.989134 -15.9444
lclavicle -4.12602e-014 8.34896e-015
lhumerus -16.5165 -14.3276 54.9408
lradius 100.848
lwrist -16.2936
lhand -33.9126 8.59912
lfingers 7.12502
lthumb -7.09519 38.4602
rfemur -2.56949 19.6083 11.9759
rtibia 23.5011
rfoot -19.9712 -23.469
rtoes -9.25307
lfemur -8.16881 -9.66602 -4.54936
ltibia 25.898
lfoot -14.686 7.78209
ltoes -16.1788
772
root 0.334772 18.2038 -4.48338 -1.25936 1.35145 -1.51504
lowerback 7.83518 1.77999 1.38493
upperback 0.209092 2.49167 -0.0635616
thorax -4.11336 1.20749 -1.1224
lowerneck -13.5981 -0.95829 -7.70101
upperneck 11.7184 -0.743507 6.71197
head 5.82342 -0.192374 3.32807
rclavicle 1.37658e-014 -1.19271e-015
rhumerus -7.2944 1.1557 -44.0083
rradius 124.913
rwrist 12.9159
rhand -27.9152 14.0963
rfingers 7.12502
rthumb -1.304 -15.8794
lclavicle 1.37658e-014 -1.19271e-015
lhumerus -16.3874 -14.4782 55.4284
lradius 100.52
lwrist -16.0707
lhand -33.8793 8.98122
lfingers 7.12502
lthumb -7.06309 38.8434
rfemur -2.64728 19.8024 11.7336
rtibia 23.5189
rfoot -19.9012 -23.2667
rtoes -9.51445
lfemur -8.02388 -9.36678 -4.78338
ltibia 26.0793
lfoot -14.865 7.87485
ltoes -16.0682
773
root 0.363668 18.203 -4.4819 -1.28793 0.950368 -1.38471
lowerback 7.92119 1.77186 1.26449
upperback 0.211856 2.47002 -0.0888085
thorax -4.16325 1.19828 -1.08183
lowerneck -13.6744 -0.988648 -7.50151
upperneck 11.7698 -0.789767 6.49792
head 5.85465 -0.221352 3.22306
rclavicle -1.24799e-014 -5.06901e-015
rhumerus -7.40745 0.629921 -43.8901
rradius 124.94
rwrist 13.0013
rhand -28.4179 14.2247
rfingers 7.12502
rthumb -1.78952 -15.7476
lclavicle -1.24799e-014 -5.06901e-015
lhumerus -16.2619 -14.6757 55.8786
lradius 100.194
lwrist -15.7766
lhand -33.8446 9.02268
lfingers 7.12502
lthumb -7.02952 38.886
rfemur -2.73306 20.0152 11.4573
rtibia 23.5158
rfoot -19.8114 -23.1565
rtoes -9.79568
lfemur -7.89878 -9.01027 -5.04178
ltibia 26.2411
lfoot -14.9865 7.91494
ltoes -16.1744
774
root 0.394935 18.2024 -4.48009 -1.2849 0.567199 -1.18743
lowerback 7.96413 1.77989 1.13471
upperback 0.175509 2.46622 -0.16787
thorax -4.22717 1.19737 -1.09295
lowerneck -13.5719 -0.997329 -7.39065
upperneck 11.737 -0.823465 6.45529
head 5.82892 -0.237386 3.18722
rclavicle 1.81391e-015 -2.78299e-015
rhumerus -7.5776 0.112587 -43.8465
rradius 124.966
rwrist 12.9886
rhand -28.9776 14.1469
rfingers 7.12502
rthumb -2.33005 -15.8201
lclavicle 1.81391e-015 -2.78299e-015
lhumerus -16.1813 -14.8336 56.3519
lradius 100
lwrist -15.3625
lhand -33.6395 8.77801
lfingers 7.12502
lthumb -6.83157 38.6478
rfemur -2.89401 20.1842 11.0756
rtibia 23.5298
rfoot -19.5811 -23.0787
rtoes -10.3351
lfemur -7.80693 -8.6553 -5.3829
ltibia 26.3949
lfoot -15.0536 7.98934
ltoes -16.3071
775
root 0.424229 18.1992 -4.48177 -1.27927 0.24691 -1.18924
lowerback 7.97396 1.78007 1.19207
upperback 0.183293 2.4708 -0.188984
thorax -4.22112 1.19837 -1.14762
lowerneck -13.5434 -0.992885 -7.47417
upperneck 11.7329 -0.836331 6.68654
head 5.8248 -0.230135 3.27421
rclavicle -2.26428e-014 -1.15295e-014
rhumerus -7.7052 -0.47248 -43.8113
rradius 124.95
rwrist 12.8162
rhand -28.7783 13.9944
rfingers 7.12502
rthumb -2.13763 -15.9747
lclavicle -2.26428e-014 -1.15295e-014
lhumerus -16.0328 -14.8348 56.9624
lradius 99.8513
lwrist -15.0477
lhand -33.512 8.77373
lfingers 7.12502
lthumb -6.70851 38.6475
rfemur -3.07702 20.4087 10.9628
rtibia 23.5784
rfoot -19.2697 -23.2303
rtoes -11.2137
lfemur -7.78985 -8.37746 -5.4621
ltibia 26.5451
lfoot -15.168 7.93087
ltoes -15.8586
776
root 0.451096 18.1948 -4.48665 -1.27273 -0.0106496 -1.1604
lowerback 8.02264 1.74233 1.16909
upperback 0.211532 2.41928 -0.177155
thorax -4.22189 1.17348 -1.11785
lowerneck -13.6459 -0.99052 -7.54662
upperneck 11.7504 -0.829151 6.80227
head 5.84777 -0.219532 3.32483
rclavicle -2.58296e-014 -7.95139e-016
rhumerus -7.70458 -0.976491 -43.7868
rradius 124.869
rwrist 12.5425
rhand -28.3296 13.87
rfingers 7.12502
rthumb -1.70429 -16.103
lclavicle -2.58296e-014 -7.95139e-016
lhumerus -15.9349 -14.8148 57.5628
lradius 99.545
lwrist -14.759
lhand -33.6661 8.90791
lfingers 7.12502
lthumb -6.85721 38.7769
rfemur -3.22473 20.6378 10.8286
rtibia 23.6501
rfoot -19.1671 -23.3049
rtoes -11.4874
lfemur -7.82176 -8.04314 -5.54608
ltibia 26.6857
lfoot -15.2476 7.75651
ltoes -15.2777
777
root 0.478729 18.1934 -4.48756 -1.27566 -0.317054 -0.933861
lowerback 8.08934 1.71653 0.936742
upperback 0.210806 2.36258 -0.21149
thorax -4.26941 1.1492 -1.01921
lowerneck -13.7719 -0.98297 -7.44023
upperneck 11.85 -0.815157 6.66524
head 5.89847 -0.216884 3.26619
rclavicle -4.73356e-015 1.49089e-015
rhumerus -7.63701 -1.36587 -43.8162
rradius 124.728
rwrist 12.3984
rhand -28.3625 13.9047
rfingers 7.12502
rthumb -1.73601 -16.068
lclavicle -4.73356e-015 1.49089e-015
lhumerus -16.0315 -14.9589 58.0718
lradius 99.0729
lwrist -14.5402
lhand -33.9448 9.13826
lfingers 7.12502
lthumb -7.1263 38.9983
rfemur -3.35383 20.8044 10.4564
rtibia 23.7489
rfoot -19.1106 -23.2286
rtoes -11.5252
lfemur -7.78128 -7.61436 -5.88182
ltibia 26.7992
lfoot -15.3009 7.59463
ltoes -15.2493
778
root 0.50332 18.1932 -4.48861 -1.26425 -0.603629 -0.709155
lowerback 8.18621 1.70759 0.664057
upperback 0.189253 2.32473 -0.238486
thorax -4.35672 1.13486 -0.893922
lowerneck -13.7811 -0.96514 -7.46163
upperneck 11.8486 -0.789177 6.6866
head 5.89778 -0.203468 3.27897
rclavicle -7.50412e-015 7.95139e-016
rhumerus -7.62638 -1.76393 -43.8322
rradius 124.639
rwrist 12.2156
rhand -28.8319 13.7491
rfingers 7.12502
rthumb -2.18935 -16.2194
lclavicle -7.50412e-015 7.95139e-016
lhumerus -16.3697 -15.322 58.4494
lradius 98.6231
lwrist -14.3171
lhand -34.1054 9.23076
lfingers 7.12502
lthumb -7.28129 39.0855
rfemur -3.54837 21.062 10.0992
rtibia 23.8953
rfoot -19.1226 -23.2449
rtoes -11.2473
lfemur -7.73694 -7.27169 -6.20567
ltibia 26.865
lfoot -15.3885 7.4323
ltoes -15.1575
779
root 0.530474 18.1932 -4.4897 -1.29293 -0.830893 -0.415229
lowerback 8.29883 1.68359 0.375587
upperback 0.195091 2.26332 -0.293046
thorax -4.42391 1.10935 -0.78534
lowerneck -13.6259 -0.919058 -7.5479
upperneck 11.6578 -0.72557 6.77034
head 5.80729 -0.171736 3.3226
rclavicle 7.87063e-015 -4.67144e-015
rhumerus -7.70083 -2.18125 -43.8798
rradius 124.608
rwrist 11.969
rhand -29.0551 13.6425
rfingers 7.12502
rthumb -2.40492 -16.3237
lclavicle 7.87063e-015 -4.67144e-015
lhumerus -16.729 -15.6676 58.8937
lradius 98.2048
lwrist -13.9027
lhand -34.5007 9.46796
lfingers 7.12502
lthumb -7.66286 39.3091
rfemur -3.71497 21.2179 9.65707
rtibia 24.0595
rfoot -19.0187 -23.2454
rtoes -11.6141
lfemur -7.64009 -7.02066 -6.61826
ltibia 26.8892
lfoot -15.4934 7.24283
ltoes -14.5077
780
root 0.558675 18.1914 -4.48272 -1.37 -1.05812 -0.114352
lowerback 8.29791 1.67907 0.114822
upperback 0.270523 2.22938 -0.358115
thorax -4.35271 1.0978 -0.700899
lowerneck -13.6041 -0.918804 -7.55906
upperneck 11.5452 -0.712081 6.71159
head 5.76711 -0.170069 3.30508
rclavicle 2.28168e-014 -1.39149e-014
rhumerus -7.77603 -2.6149 -43.9353
rradius 124.524
rwrist 11.7678
rhand -28.4766 13.3873
rfingers 7.12502
rthumb -1.84619 -16.5845
lclavicle 2.28168e-014 -1.39149e-014
lhumerus -16.7494 -15.7301 59.5471
lradius 97.7197
lwrist -13.3714
lhand -34.9396 9.61616
lfingers 7.12502
lthumb -8.0865 39.4414
rfemur -3.79047 21.311 9.22627
rtibia 24.2298
rfoot -19.0214 -23.1769
rtoes -11.9692
lfemur -7.44732 -6.76096 -7.055
ltibia 26.8866
lfoot -15.6145 7.11222
ltoes -14.1282
781
root 0.58471 18.1884 -4.4774 -1.49256 -1.19186 0.150978
lowerback 8.39393 1.67089 -0.0893
upperback 0.336323 2.19419 -0.459172
thorax -4.34217 1.08356 -0.688791
lowerneck -13.7097 -0.940776 -7.4745
upperneck 11.62 -0.743527 6.63869
head 5.81028 -0.185817 3.26637
rclavicle -8.19987e-016 3.97569e-016
rhumerus -7.97324 -3.04545 -44.0325
rradius 124.42
rwrist 11.3031
rhand -27.9559 13.4321
rfingers 7.12502
rthumb -1.34332 -16.5434
lclavicle -8.19987e-016 3.97569e-016
lhumerus -16.7321 -15.7609 60.1512
lradius 97.2543
lwrist -13.0196
lhand -34.686 9.39281
lfingers 7.12502
lthumb -7.84167 39.2274
rfemur -3.77145 21.4015 8.88126
rtibia 24.4211
rfoot -19.2748 -23.1122
rtoes -11.5447
lfemur -7.25346 -6.56246 -7.44672
ltibia 26.8843
lfoot -15.6692 7.05919
ltoes -14.3117
782
root 0.608271 18.1887 -4.48006 -1.52639 -1.18575 0.438464
lowerback 8.5552 1.61043 -0.381166
upperback 0.319387 2.08128 -0.526928
thorax -4.45919 1.03238 -0.587384
lowerneck -13.7129 -0.922951 -7.55799
upperneck 11.6186 -0.712722 6.70977
head 5.80856 -0.169114 3.30577
rclavicle 3.52843e-015 -6.95746e-016
rhumerus -8.1429 -3.32844 -44.1363
rradius 124.38
rwrist 10.5535
rhand -27.961 13.5723
rfingers 7.12502
rthumb -1.34823 -16.4032
lclavicle 3.52843e-015 -6.95746e-016
lhumerus -16.9281 -15.8134 60.6815
lradius 96.8087
lwrist -12.9253
lhand -34.2475 9.46028
lfingers 7.12502
lthumb -7.41844 39.3102
rfemur -3.85022 21.3484 8.50343
rtibia 24.6251
rfoot -19.3196 -23.1963
rtoes -11.7317
lfemur -7.26932 -6.40225 -7.83425
ltibia 26.9146
lfoot -15.603 6.96849
ltoes -14.6801
